<svg xmlns="http://www.w3.org/2000/svg" width="48.321" height="33.5" viewBox="0 0 48.321 33.5"><defs><style>.a{fill:#fff;}</style></defs><g transform="translate(0 -214.597)"><g transform="translate(30.404 235.915)"><g transform="translate(0 0)"><path class="a" d="M380.642,477.221a6.091,6.091,0,1,0,6.091,6.091A6.1,6.1,0,0,0,380.642,477.221Zm0,9.136a3.045,3.045,0,1,1,3.046-3.045A3.049,3.049,0,0,1,380.642,486.357Z" transform="translate(-374.551 -477.221)"/></g></g><g transform="translate(9.593 235.915)"><g transform="translate(0 0)"><path class="a" d="M124.272,477.221a6.091,6.091,0,1,0,6.091,6.091A6.1,6.1,0,0,0,124.272,477.221Zm0,9.136a3.045,3.045,0,1,1,3.045-3.045A3.049,3.049,0,0,1,124.272,486.357Z" transform="translate(-118.181 -477.221)"/></g></g><g transform="translate(31.216 217.643)"><path class="a" d="M393.936,252.955a1.524,1.524,0,0,0-1.361-.839h-8.02v3.045h7.081l4.146,8.247,2.722-1.368Z" transform="translate(-384.555 -252.116)"/></g><g transform="translate(20.404 240.534)"><rect class="a" width="11.522" height="3.045"/></g><g transform="translate(4.314 240.534)"><path class="a" d="M59.951,534.124H54.673a1.523,1.523,0,1,0,0,3.045h5.279a1.523,1.523,0,1,0,0-3.045Z" transform="translate(-53.15 -534.124)"/></g><g transform="translate(4.314 214.597)"><path class="a" d="M96.837,231.225l-3-3.858a1.521,1.521,0,0,0-1.2-.589H81.574V216.12a1.523,1.523,0,0,0-1.523-1.523H54.673a1.523,1.523,0,1,0,0,3.045H78.529V228.3a1.523,1.523,0,0,0,1.523,1.523H91.894l2.218,2.857v7.853H89.9a1.523,1.523,0,1,0,0,3.045h5.736a1.523,1.523,0,0,0,1.523-1.523v-9.9A1.525,1.525,0,0,0,96.837,231.225Z" transform="translate(-53.15 -214.597)"/></g><g transform="translate(2.487 232.819)"><path class="a" d="M39.167,439.079h-7a1.523,1.523,0,0,0,0,3.045h7a1.523,1.523,0,1,0,0-3.045Z" transform="translate(-30.64 -439.079)"/></g><g transform="translate(0 226.83)"><g transform="translate(0 0)"><path class="a" d="M14.517,365.293H1.523a1.523,1.523,0,0,0,0,3.046H14.517a1.523,1.523,0,0,0,0-3.046Z" transform="translate(0 -365.293)"/></g></g><g transform="translate(2.487 220.84)"><g transform="translate(0 0)"><path class="a" d="M45.157,291.509H32.163a1.523,1.523,0,1,0,0,3.045H45.157a1.523,1.523,0,0,0,0-3.045Z" transform="translate(-30.64 -291.509)"/></g></g></g></svg>