<svg xmlns="http://www.w3.org/2000/svg" width="40.298" height="40.298" viewBox="0 0 40.298 40.298"><defs><style>.a{fill:#fff;}</style></defs><g transform="translate(-101.268 -101.267)"><path class="a" d="M177.7,165.424a12.273,12.273,0,1,1-12.272-12.273A12.272,12.272,0,0,1,177.7,165.424Z" transform="translate(-44.011 -44.008)"/><path class="a" d="M139.217,117.609a2.962,2.962,0,0,1-.482-1.78l.222-4.036a.814.814,0,0,0-.446-.772l-3.587-1.812a2.96,2.96,0,0,1-1.3-1.3l-1.812-3.587a.815.815,0,0,0-.773-.446l-4.036.222a2.951,2.951,0,0,1-1.78-.481l-3.359-2.215a.815.815,0,0,0-.9,0l-3.358,2.215a2.95,2.95,0,0,1-1.781.481l-4.036-.222a.813.813,0,0,0-.773.446l-1.812,3.587a2.96,2.96,0,0,1-1.3,1.3l-3.587,1.812a.815.815,0,0,0-.446.773l.222,4.036a2.962,2.962,0,0,1-.481,1.78l-2.215,3.359a.815.815,0,0,0,0,.9l2.215,3.358A2.963,2.963,0,0,1,104.1,127l-.222,4.036a.816.816,0,0,0,.446.773l3.587,1.812a2.924,2.924,0,0,1,1.3,1.3l1.812,3.588a.818.818,0,0,0,.773.446l4.036-.222c.053,0,.105,0,.158,0a2.966,2.966,0,0,1,1.622.486l3.359,2.214a.812.812,0,0,0,.9,0l3.359-2.214a2.963,2.963,0,0,1,1.779-.482l4.036.222a.814.814,0,0,0,.773-.446l1.812-3.587a2.918,2.918,0,0,1,1.3-1.3l3.587-1.812a.814.814,0,0,0,.446-.773L138.736,127a2.963,2.963,0,0,1,.482-1.781l2.214-3.358a.814.814,0,0,0,0-.9Zm-17.8,18.206a14.4,14.4,0,1,1,14.4-14.4A14.4,14.4,0,0,1,121.418,135.814Z" transform="translate(0)"/></g></svg>