<svg xmlns="http://www.w3.org/2000/svg" xmlns:xlink="http://www.w3.org/1999/xlink" width="286.72" height="371.88" viewBox="0 0 286.72 371.88"><defs><style>.a{fill:none;}.b,.e{isolation:isolate;}.b{clip-path:url(#a);}.c{clip-path:url(#b);}.d{fill:#707070;stroke:#707070;}.e{clip-path:url(#c);}.f{clip-path:url(#d);}.g{stroke:none;}</style><clipPath id="a"><rect class="a" x="10" y="1" width="286.72" height="122.88"/></clipPath><clipPath id="b"><rect class="a" width="269" height="102"/></clipPath><clipPath id="c"><rect class="a" x="10" y="1" width="286.72" height="227.88"/></clipPath><clipPath id="d"><rect class="a" width="84" height="368"/></clipPath></defs><g class="b" transform="translate(-10 248)"><g class="c"><g transform="translate(-85 -468)"><g class="d" transform="translate(65 476)"><circle class="g" cx="13" cy="13" r="13"/><circle class="a" cx="13" cy="13" r="12.5"/></g></g><g transform="translate(-21 -468)"><g class="d" transform="translate(65 476)"><circle class="g" cx="13" cy="13" r="13"/><circle class="a" cx="13" cy="13" r="12.5"/></g></g><g transform="translate(43 -468)"><g class="d" transform="translate(65 476)"><circle class="g" cx="13" cy="13" r="13"/><circle class="a" cx="13" cy="13" r="12.5"/></g></g><g transform="translate(107 -468)"><g class="d" transform="translate(65 476)"><circle class="g" cx="13" cy="13" r="13"/><circle class="a" cx="13" cy="13" r="12.5"/></g></g><g transform="translate(171 -468)"><g class="d" transform="translate(65 476)"><circle class="g" cx="13" cy="13" r="13"/><circle class="a" cx="13" cy="13" r="12.5"/></g></g><g transform="translate(-85 -406)"><g class="d" transform="translate(65 476)"><circle class="g" cx="13" cy="13" r="13"/><circle class="a" cx="13" cy="13" r="12.5"/></g></g><g transform="translate(-21 -406)"><g class="d" transform="translate(65 476)"><circle class="g" cx="13" cy="13" r="13"/><circle class="a" cx="13" cy="13" r="12.5"/></g></g><g transform="translate(43 -406)"><g class="d" transform="translate(65 476)"><circle class="g" cx="13" cy="13" r="13"/><circle class="a" cx="13" cy="13" r="12.5"/></g></g><g transform="translate(107 -406)"><g class="d" transform="translate(65 476)"><circle class="g" cx="13" cy="13" r="13"/><circle class="a" cx="13" cy="13" r="12.5"/></g></g><g transform="translate(171 -406)"><g class="d" transform="translate(65 476)"><circle class="g" cx="13" cy="13" r="13"/><circle class="a" cx="13" cy="13" r="12.5"/></g></g></g></g><g class="e" transform="translate(-10 -1)"><g class="f"><g transform="translate(-85 -468)"><g class="d" transform="translate(65 476)"><circle class="g" cx="13" cy="13" r="13"/><circle class="a" cx="13" cy="13" r="12.5"/></g></g><g transform="translate(-21 -468)"><g class="d" transform="translate(65 476)"><circle class="g" cx="13" cy="13" r="13"/><circle class="a" cx="13" cy="13" r="12.5"/></g></g><g transform="translate(-85 -406)"><g class="d" transform="translate(65 476)"><circle class="g" cx="13" cy="13" r="13"/><circle class="a" cx="13" cy="13" r="12.5"/></g></g><g transform="translate(-21 -406)"><g class="d" transform="translate(65 476)"><circle class="g" cx="13" cy="13" r="13"/><circle class="a" cx="13" cy="13" r="12.5"/></g></g><g transform="translate(-85 -344)"><g class="d" transform="translate(65 476)"><circle class="g" cx="13" cy="13" r="13"/><circle class="a" cx="13" cy="13" r="12.5"/></g></g><g transform="translate(-21 -344)"><g class="d" transform="translate(65 476)"><circle class="g" cx="13" cy="13" r="13"/><circle class="a" cx="13" cy="13" r="12.5"/></g></g><g transform="translate(-85 -282)"><g class="d" transform="translate(65 476)"><circle class="g" cx="13" cy="13" r="13"/><circle class="a" cx="13" cy="13" r="12.5"/></g></g><g transform="translate(-21 -282)"><g class="d" transform="translate(65 476)"><circle class="g" cx="13" cy="13" r="13"/><circle class="a" cx="13" cy="13" r="12.5"/></g></g><g transform="translate(-85 -220)"><g class="d" transform="translate(65 476)"><circle class="g" cx="13" cy="13" r="13"/><circle class="a" cx="13" cy="13" r="12.5"/></g></g><g transform="translate(-21 -220)"><g class="d" transform="translate(65 476)"><circle class="g" cx="13" cy="13" r="13"/><circle class="a" cx="13" cy="13" r="12.5"/></g></g><g transform="translate(-85 -158)"><g class="d" transform="translate(65 476)"><circle class="g" cx="13" cy="13" r="13"/><circle class="a" cx="13" cy="13" r="12.5"/></g></g><g transform="translate(-21 -158)"><g class="d" transform="translate(65 476)"><circle class="g" cx="13" cy="13" r="13"/><circle class="a" cx="13" cy="13" r="12.5"/></g></g></g></g></svg>