<svg xmlns="http://www.w3.org/2000/svg" width="40.064" height="40.064" viewBox="0 0 40.064 40.064"><defs><style>.a{fill:#fff;}</style></defs><g transform="translate(-650 -2057)"><g transform="translate(650 2057)"><path class="a" d="M20.032,40.064A20.032,20.032,0,0,1,5.867,5.867,20.032,20.032,0,0,1,34.2,34.2,19.9,19.9,0,0,1,20.032,40.064Zm0-37.56A17.528,17.528,0,1,0,37.56,20.032,17.548,17.548,0,0,0,20.032,2.5Z" transform="translate(0 0)"/><path class="a" d="M189.634,107.268a3.13,3.13,0,1,1,3.13-3.13,1.252,1.252,0,0,0,2.5,0,5.643,5.643,0,0,0-4.382-5.492V97.252a1.252,1.252,0,0,0-2.5,0v1.394a5.633,5.633,0,0,0,1.252,11.126,3.13,3.13,0,1,1-3.13,3.13,1.252,1.252,0,0,0-2.5,0,5.643,5.643,0,0,0,4.382,5.492v1.394a1.252,1.252,0,1,0,2.5,0v-1.394a5.633,5.633,0,0,0-1.252-11.126Z" transform="translate(-169.602 -88.488)"/></g></g></svg>