<svg xmlns="http://www.w3.org/2000/svg" xmlns:xlink="http://www.w3.org/1999/xlink" width="56" height="68.5" viewBox="0 0 56 68.5"><defs><style>.a{fill:none;}.b,.e{isolation:isolate;}.b{clip-path:url(#a);}.c{clip-path:url(#b);}.d{fill:#707070;stroke:#707070;}.e{clip-path:url(#c);}.f{clip-path:url(#d);}.g{stroke:none;}</style><clipPath id="a"><rect class="a" x="10" y="1" width="56" height="24"/></clipPath><clipPath id="b"><rect class="a" width="69" height="25"/></clipPath><clipPath id="c"><rect class="a" x="10" y="2" width="17" height="38"/></clipPath><clipPath id="d"><rect class="a" width="37" height="28"/></clipPath></defs><g transform="translate(71 479) rotate(180)"><g class="b" transform="translate(5 454)"><g class="c"><g transform="translate(-85 -468)"><g class="d" transform="translate(86 469)"><circle class="g" cx="2.5" cy="2.5" r="2.5"/><circle class="a" cx="2.5" cy="2.5" r="2"/></g></g><g transform="translate(-71 -468)"><g class="d" transform="translate(86 469)"><circle class="g" cx="2.5" cy="2.5" r="2.5"/><circle class="a" cx="2.5" cy="2.5" r="2"/></g></g><g transform="translate(-57 -468)"><g class="d" transform="translate(86 469)"><circle class="g" cx="2.5" cy="2.5" r="2.5"/><circle class="a" cx="2.5" cy="2.5" r="2"/></g></g><g transform="translate(-43 -468)"><g class="d" transform="translate(86 469)"><circle class="g" cx="2.5" cy="2.5" r="2.5"/><circle class="a" cx="2.5" cy="2.5" r="2"/></g></g><g transform="translate(-29 -468)"><g class="d" transform="translate(86 469)"><circle class="g" cx="2.5" cy="2.5" r="2.5"/><circle class="a" cx="2.5" cy="2.5" r="2"/></g></g><g transform="translate(-85 -454)"><g class="d" transform="translate(86 469)"><circle class="g" cx="2.5" cy="2.5" r="2.5"/><circle class="a" cx="2.5" cy="2.5" r="2"/></g></g><g transform="translate(-71 -454)"><g class="d" transform="translate(86 469)"><circle class="g" cx="2.5" cy="2.5" r="2.5"/><circle class="a" cx="2.5" cy="2.5" r="2"/></g></g><g transform="translate(-57 -454)"><g class="d" transform="translate(86 469)"><circle class="g" cx="2.5" cy="2.5" r="2.5"/><circle class="a" cx="2.5" cy="2.5" r="2"/></g></g><g transform="translate(-43 -454)"><g class="d" transform="translate(86 469)"><circle class="g" cx="2.5" cy="2.5" r="2.5"/><circle class="a" cx="2.5" cy="2.5" r="2"/></g></g><g transform="translate(-29 -454)"><g class="d" transform="translate(86 469)"><circle class="g" cx="2.5" cy="2.5" r="2.5"/><circle class="a" cx="2.5" cy="2.5" r="2"/></g></g></g></g><g class="e" transform="translate(5.5 408.5)"><g class="f" transform="translate(0 37) rotate(-90)"><g transform="translate(-85 -468)"><g class="d" transform="translate(86 469)"><circle class="g" cx="2.5" cy="2.5" r="2.5"/><circle class="a" cx="2.5" cy="2.5" r="2"/></g></g><g transform="translate(-71 -468)"><g class="d" transform="translate(86 469)"><circle class="g" cx="2.5" cy="2.5" r="2.5"/><circle class="a" cx="2.5" cy="2.5" r="2"/></g></g><g transform="translate(-57 -468)"><g class="d" transform="translate(86 469)"><circle class="g" cx="2.5" cy="2.5" r="2.5"/><circle class="a" cx="2.5" cy="2.5" r="2"/></g></g><g transform="translate(-85 -454)"><g class="d" transform="translate(86 469)"><circle class="g" cx="2.5" cy="2.5" r="2.5"/><circle class="a" cx="2.5" cy="2.5" r="2"/></g></g><g transform="translate(-71 -454)"><g class="d" transform="translate(86 469)"><circle class="g" cx="2.5" cy="2.5" r="2.5"/><circle class="a" cx="2.5" cy="2.5" r="2"/></g></g><g transform="translate(-57 -454)"><g class="d" transform="translate(86 469)"><circle class="g" cx="2.5" cy="2.5" r="2.5"/><circle class="a" cx="2.5" cy="2.5" r="2"/></g></g></g></g></g></svg>