<svg xmlns="http://www.w3.org/2000/svg" xmlns:xlink="http://www.w3.org/1999/xlink" width="333" height="242" viewBox="0 0 333 242"><defs><style>.a{fill:#10327a;}.b,.e{fill:none;}.c{clip-path:url(#a);}.d{clip-path:url(#b);}.e{stroke:#25478c;}</style><clipPath id="a"><rect class="a" width="333" height="242" transform="translate(30.981 196)"/></clipPath><clipPath id="b"><rect class="b" width="453.624" height="568.891"/></clipPath></defs><g class="c" transform="translate(-30.981 -196)"><g class="d" transform="translate(29.988 40.905)"><g transform="translate(-29.731 -202.944)"><path class="e" d="M30,237.259l46.929-29.91s18.926-10.959,47.477,3.887,53.827,38.013,108.949,42.7,58.406-13.44,91.721-6.788,79.655,38.8,79.655,38.8"/></g><g transform="translate(-29.731 -190.944)"><path class="e" d="M30,237.259l46.929-29.91s18.926-10.959,47.477,3.887,53.827,38.013,108.949,42.7,58.406-13.44,91.721-6.788,79.655,38.8,79.655,38.8"/></g><g transform="translate(-29.731 -178.944)"><path class="e" d="M30,237.259l46.929-29.91s18.926-10.959,47.477,3.887,53.827,38.013,108.949,42.7,58.406-13.44,91.721-6.788,79.655,38.8,79.655,38.8"/></g><g transform="translate(-29.731 -166.944)"><path class="e" d="M30,237.259l46.929-29.91s18.926-10.959,47.477,3.887,53.827,38.013,108.949,42.7,58.406-13.44,91.721-6.788,79.655,38.8,79.655,38.8"/></g><g transform="translate(-29.731 -154.944)"><path class="e" d="M30,237.259l46.929-29.91s18.926-10.959,47.477,3.887,53.827,38.013,108.949,42.7,58.406-13.44,91.721-6.788,79.655,38.8,79.655,38.8"/></g><g transform="translate(-29.731 -142.944)"><path class="e" d="M30,237.259l46.929-29.91s18.926-10.959,47.477,3.887,53.827,38.013,108.949,42.7,58.406-13.44,91.721-6.788,79.655,38.8,79.655,38.8"/></g><g transform="translate(-29.731 -130.944)"><path class="e" d="M30,237.259l46.929-29.91s18.926-10.959,47.477,3.887,53.827,38.013,108.949,42.7,58.406-13.44,91.721-6.788,79.655,38.8,79.655,38.8"/></g><g transform="translate(-29.731 -118.944)"><path class="e" d="M30,237.259l46.929-29.91s18.926-10.959,47.477,3.887,53.827,38.013,108.949,42.7,58.406-13.44,91.721-6.788,79.655,38.8,79.655,38.8"/></g><g transform="translate(-29.731 -106.944)"><path class="e" d="M30,237.259l46.929-29.91s18.926-10.959,47.477,3.887,53.827,38.013,108.949,42.7,58.406-13.44,91.721-6.788,79.655,38.8,79.655,38.8"/></g><g transform="translate(-29.731 -94.944)"><path class="e" d="M30,237.259l46.929-29.91s18.926-10.959,47.477,3.887,53.827,38.013,108.949,42.7,58.406-13.44,91.721-6.788,79.655,38.8,79.655,38.8"/></g><g transform="translate(-29.731 -82.944)"><path class="e" d="M30,237.259l46.929-29.91s18.926-10.959,47.477,3.887,53.827,38.013,108.949,42.7,58.406-13.44,91.721-6.788,79.655,38.8,79.655,38.8"/></g><g transform="translate(-29.731 -70.944)"><path class="e" d="M30,237.259l46.929-29.91s18.926-10.959,47.477,3.887,53.827,38.013,108.949,42.7,58.406-13.44,91.721-6.788,79.655,38.8,79.655,38.8"/></g><g transform="translate(-29.731 -58.944)"><path class="e" d="M30,237.259l46.929-29.91s18.926-10.959,47.477,3.887,53.827,38.013,108.949,42.7,58.406-13.44,91.721-6.788,79.655,38.8,79.655,38.8"/></g><g transform="translate(-29.731 -46.944)"><path class="e" d="M30,237.259l46.929-29.91s18.926-10.959,47.477,3.887,53.827,38.013,108.949,42.7,58.406-13.44,91.721-6.788,79.655,38.8,79.655,38.8"/></g><g transform="translate(-29.731 -34.944)"><path class="e" d="M30,237.259l46.929-29.91s18.926-10.959,47.477,3.887,53.827,38.013,108.949,42.7,58.406-13.44,91.721-6.788,79.655,38.8,79.655,38.8"/></g><g transform="translate(-29.731 -22.944)"><path class="e" d="M30,237.259l46.929-29.91s18.926-10.959,47.477,3.887,53.827,38.013,108.949,42.7,58.406-13.44,91.721-6.788,79.655,38.8,79.655,38.8"/></g><g transform="translate(-29.731 -10.944)"><path class="e" d="M30,237.259l46.929-29.91s18.926-10.959,47.477,3.887,53.827,38.013,108.949,42.7,58.406-13.44,91.721-6.788,79.655,38.8,79.655,38.8"/></g><g transform="translate(-29.731 1.056)"><path class="e" d="M30,237.259l46.929-29.91s18.926-10.959,47.477,3.887,53.827,38.013,108.949,42.7,58.406-13.44,91.721-6.788,79.655,38.8,79.655,38.8"/></g><g transform="translate(-29.731 13.056)"><path class="e" d="M30,237.259l46.929-29.91s18.926-10.959,47.477,3.887,53.827,38.013,108.949,42.7,58.406-13.44,91.721-6.788,79.655,38.8,79.655,38.8"/></g><g transform="translate(-29.731 25.056)"><path class="e" d="M30,237.259l46.929-29.91s18.926-10.959,47.477,3.887,53.827,38.013,108.949,42.7,58.406-13.44,91.721-6.788,79.655,38.8,79.655,38.8"/></g><g transform="translate(-29.731 37.056)"><path class="e" d="M30,237.259l46.929-29.91s18.926-10.959,47.477,3.887,53.827,38.013,108.949,42.7,58.406-13.44,91.721-6.788,79.655,38.8,79.655,38.8"/></g><g transform="translate(-29.731 49.056)"><path class="e" d="M30,237.259l46.929-29.91s18.926-10.959,47.477,3.887,53.827,38.013,108.949,42.7,58.406-13.44,91.721-6.788,79.655,38.8,79.655,38.8"/></g><g transform="translate(-29.731 61.056)"><path class="e" d="M30,237.259l46.929-29.91s18.926-10.959,47.477,3.887,53.827,38.013,108.949,42.7,58.406-13.44,91.721-6.788,79.655,38.8,79.655,38.8"/></g><g transform="translate(-29.731 73.056)"><path class="e" d="M30,237.259l46.929-29.91s18.926-10.959,47.477,3.887,53.827,38.013,108.949,42.7,58.406-13.44,91.721-6.788,79.655,38.8,79.655,38.8"/></g><g transform="translate(-29.731 85.056)"><path class="e" d="M30,237.259l46.929-29.91s18.926-10.959,47.477,3.887,53.827,38.013,108.949,42.7,58.406-13.44,91.721-6.788,79.655,38.8,79.655,38.8"/></g><g transform="translate(-29.731 97.056)"><path class="e" d="M30,237.259l46.929-29.91s18.926-10.959,47.477,3.887,53.827,38.013,108.949,42.7,58.406-13.44,91.721-6.788,79.655,38.8,79.655,38.8"/></g><g transform="translate(-29.731 109.056)"><path class="e" d="M30,237.259l46.929-29.91s18.926-10.959,47.477,3.887,53.827,38.013,108.949,42.7,58.406-13.44,91.721-6.788,79.655,38.8,79.655,38.8"/></g><g transform="translate(-29.731 121.056)"><path class="e" d="M30,237.259l46.929-29.91s18.926-10.959,47.477,3.887,53.827,38.013,108.949,42.7,58.406-13.44,91.721-6.788,79.655,38.8,79.655,38.8"/></g><g transform="translate(-29.731 133.056)"><path class="e" d="M30,237.259l46.929-29.91s18.926-10.959,47.477,3.887,53.827,38.013,108.949,42.7,58.406-13.44,91.721-6.788,79.655,38.8,79.655,38.8"/></g><g transform="translate(-29.731 145.056)"><path class="e" d="M30,237.259l46.929-29.91s18.926-10.959,47.477,3.887,53.827,38.013,108.949,42.7,58.406-13.44,91.721-6.788,79.655,38.8,79.655,38.8"/></g><g transform="translate(-29.731 157.056)"><path class="e" d="M30,237.259l46.929-29.91s18.926-10.959,47.477,3.887,53.827,38.013,108.949,42.7,58.406-13.44,91.721-6.788,79.655,38.8,79.655,38.8"/></g><g transform="translate(-29.731 169.056)"><path class="e" d="M30,237.259l46.929-29.91s18.926-10.959,47.477,3.887,53.827,38.013,108.949,42.7,58.406-13.44,91.721-6.788,79.655,38.8,79.655,38.8"/></g><g transform="translate(-29.731 181.056)"><path class="e" d="M30,237.259l46.929-29.91s18.926-10.959,47.477,3.887,53.827,38.013,108.949,42.7,58.406-13.44,91.721-6.788,79.655,38.8,79.655,38.8"/></g><g transform="translate(-29.731 193.056)"><path class="e" d="M30,237.259l46.929-29.91s18.926-10.959,47.477,3.887,53.827,38.013,108.949,42.7,58.406-13.44,91.721-6.788,79.655,38.8,79.655,38.8"/></g><g transform="translate(-29.731 205.056)"><path class="e" d="M30,237.259l46.929-29.91s18.926-10.959,47.477,3.887,53.827,38.013,108.949,42.7,58.406-13.44,91.721-6.788,79.655,38.8,79.655,38.8"/></g><g transform="translate(-29.731 217.056)"><path class="e" d="M30,237.259l46.929-29.91s18.926-10.959,47.477,3.887,53.827,38.013,108.949,42.7,58.406-13.44,91.721-6.788,79.655,38.8,79.655,38.8"/></g><g transform="translate(-29.731 229.056)"><path class="e" d="M30,237.259l46.929-29.91s18.926-10.959,47.477,3.887,53.827,38.013,108.949,42.7,58.406-13.44,91.721-6.788,79.655,38.8,79.655,38.8"/></g><g transform="translate(-29.731 241.056)"><path class="e" d="M30,237.259l46.929-29.91s18.926-10.959,47.477,3.887,53.827,38.013,108.949,42.7,58.406-13.44,91.721-6.788,79.655,38.8,79.655,38.8"/></g><g transform="translate(-29.731 253.056)"><path class="e" d="M30,237.259l46.929-29.91s18.926-10.959,47.477,3.887,53.827,38.013,108.949,42.7,58.406-13.44,91.721-6.788,79.655,38.8,79.655,38.8"/></g><g transform="translate(-29.731 265.056)"><path class="e" d="M30,237.259l46.929-29.91s18.926-10.959,47.477,3.887,53.827,38.013,108.949,42.7,58.406-13.44,91.721-6.788,79.655,38.8,79.655,38.8"/></g><g transform="translate(-29.731 277.056)"><path class="e" d="M30,237.259l46.929-29.91s18.926-10.959,47.477,3.887,53.827,38.013,108.949,42.7,58.406-13.44,91.721-6.788,79.655,38.8,79.655,38.8"/></g><g transform="translate(-29.731 289.056)"><path class="e" d="M30,237.259l46.929-29.91s18.926-10.959,47.477,3.887,53.827,38.013,108.949,42.7,58.406-13.44,91.721-6.788,79.655,38.8,79.655,38.8"/></g><g transform="translate(-29.731 301.056)"><path class="e" d="M30,237.259l46.929-29.91s18.926-10.959,47.477,3.887,53.827,38.013,108.949,42.7,58.406-13.44,91.721-6.788,79.655,38.8,79.655,38.8"/></g><g transform="translate(-29.731 313.056)"><path class="e" d="M30,237.259l46.929-29.91s18.926-10.959,47.477,3.887,53.827,38.013,108.949,42.7,58.406-13.44,91.721-6.788,79.655,38.8,79.655,38.8"/></g><g transform="translate(-29.731 325.056)"><path class="e" d="M30,237.259l46.929-29.91s18.926-10.959,47.477,3.887,53.827,38.013,108.949,42.7,58.406-13.44,91.721-6.788,79.655,38.8,79.655,38.8"/></g><g transform="translate(-29.731 337.056)"><path class="e" d="M30,237.259l46.929-29.91s18.926-10.959,47.477,3.887,53.827,38.013,108.949,42.7,58.406-13.44,91.721-6.788,79.655,38.8,79.655,38.8"/></g><g transform="translate(-29.731 349.056)"><path class="e" d="M30,237.259l46.929-29.91s18.926-10.959,47.477,3.887,53.827,38.013,108.949,42.7,58.406-13.44,91.721-6.788,79.655,38.8,79.655,38.8"/></g><g transform="translate(-29.731 361.056)"><path class="e" d="M30,237.259l46.929-29.91s18.926-10.959,47.477,3.887,53.827,38.013,108.949,42.7,58.406-13.44,91.721-6.788,79.655,38.8,79.655,38.8"/></g></g></g></svg>